# File created by Blade
# Date/Time:  Tue Sep 30 19:29:03 2014
#---------------------------------------------------------
:version 1.10
:name HOM
:units
  mass 1.0
  length 1.000000
  angle deg
:documentation
     Acclaim Skeleton File
:root
   axis xyz
   order TX TY TZ RX RY RZ
   position 0.000000 0.000000 0.000000
   orientation 0 0 0
:bonedata
   begin
      id 1
      name RightUpLeg_dum
      direction -1.000000 0.000000 0.000000
      length 3.766986
      axis 0.0 0.0 0.0 xyz
   end
   begin
      id 2
      name LeftUpLeg_dum
      direction 1.000000 0.000000 0.000000
      length 3.766986
      axis 0.0 0.0 0.0 xyz
   end
   begin
      id 3
      name Spine_dum
      direction 0.000000 1.000000 0.000000
      length 7.779697
      axis 0.0 0.0 0.0 xyz
   end
   begin
      id 4
      name RightUpLeg
      direction 0.000000 -1.000000 0.000000
      length 18.017682
      axis 0.0 0.0 0.0 xyz
      dof rx ry rz
   end
   begin
      id 5
      name RightLeg
      direction 0.000000 -1.000000 0.000000
      length 16.881075
      axis 0.0 0.0 0.0 xyz
      dof rx ry rz
   end
   begin
      id 6
      name RightFoot
      direction 0.000000 -0.258819 0.965926
      length 5.770812
      axis 15.0 0.0 0.0 xyz
      dof rx ry rz
   end
   begin
      id 7
      name RightToeBase
      direction 0.000000 0.000000 1.000000
      length 2.952750
      axis 0.0 0.0 0.0 xyz
      dof rx ry rz
   end
   begin
      id 8
      name LeftUpLeg
      direction 0.000000 -1.000000 0.000000
      length 18.017682
      axis 0.0 0.0 0.0 xyz
      dof rx ry rz
   end
   begin
      id 9
      name LeftLeg
      direction 0.000000 -1.000000 0.000000
      length 16.881075
      axis 0.0 0.0 0.0 xyz
      dof rx ry rz
   end
   begin
      id 10
      name LeftFoot
      direction 0.000000 -0.258819 0.965926
      length 5.770812
      axis 15.0 0.0 0.0 xyz
      dof rx ry rz
   end
   begin
      id 11
      name LeftToeBase
      direction 0.000000 0.000000 1.000000
      length 2.952750
      axis 0.0 0.0 0.0 xyz
      dof rx ry rz
   end
   begin
      id 12
      name Spine
      direction 0.000000 1.000000 0.000000
      length 0.000000
      axis 0.0 0.0 0.0 xyz
      dof rx ry rz
   end
   begin
      id 13
      name Spine_dum1
      direction 0.000000 1.000000 0.000000
      length 10.941760
      axis 0.0 0.0 0.0 xyz
   end
   begin
      id 14
      name Spine_dum2
      direction 0.000000 1.000000 0.000000
      length 10.941760
      axis 0.0 0.0 0.0 xyz
   end
   begin
      id 15
      name Spine_dum3
      direction 0.000000 1.000000 0.000000
      length 16.646042
      axis 0.0 0.0 0.0 xyz
   end
   begin
      id 16
      name RightShoulder
      direction -1.000000 0.000000 0.000000
      length 7.708937
      axis 0.0 0.0 90.0 xyz
      dof rx ry rz
   end
   begin
      id 17
      name RightArm
      direction -1.000000 0.000000 0.000000
      length 11.521345
      axis 0.0 0.0 90.0 xyz
      dof rx ry rz
   end
   begin
      id 18
      name RightForeArm
      direction -1.000000 0.000000 0.000000
      length 10.175898
      axis 0.0 0.0 90.0 xyz
      dof ry rz rx
   end
   begin
      id 19
      name RightHand
      direction -1.000000 0.000000 0.000000
      length 0.000000
      axis 0.0 0.0 90.0 xyz
      dof rx ry rz
   end
   begin
      id 20
      name RightHand_dum1
      direction -1.000000 0.000000 0.000000
      length 3.937000
      axis 0.0 0.0 90.0 xyz
   end
   begin
      id 21
      name RightHand_dum2
      direction 0.000000 0.000000 0.000000
      length 0.000000
      axis 0.0 0.0 90.0 xyz
   end
   begin
      id 22
      name RightHandThumb1
      direction 0.000000 0.000000 1.000000
      length 3.937000
      axis 0.0 0.0 90.0 xyz
      dof rx rz ry
   end
   begin
      id 23
      name LeftShoulder
      direction 1.000000 0.000000 0.000000
      length 7.708937
      axis 0.0 0.0 -90.0 xyz
      dof rx ry rz
   end
   begin
      id 24
      name LeftArm
      direction 1.000000 0.000000 0.000000
      length 11.521345
      axis 0.0 0.0 -90.0 xyz
      dof rx ry rz
   end
   begin
      id 25
      name LeftForeArm
      direction 1.000000 0.000000 0.000000
      length 10.175898
      axis 0.0 0.0 -90.0 xyz
      dof ry rz rx
   end
   begin
      id 26
      name LeftHand
      direction 1.000000 0.000000 0.000000
      length 0.000000
      axis 0.0 0.0 -90.0 xyz
      dof rx ry rz
   end
   begin
      id 27
      name LeftHand_dum1
      direction 1.000000 0.000000 0.000000
      length 3.937000
      axis 0.0 0.0 -90.0 xyz
   end
   begin
      id 28
      name LeftHand_dum2
      direction 0.000000 0.000000 0.000000
      length 0.000000
      axis 0.0 0.0 -90.0 xyz
   end
   begin
      id 29
      name LeftHandThumb1
      direction 0.000000 0.000000 1.000000
      length 3.937000
      axis 0.0 0.0 -90.0 xyz
      dof rx rz ry
   end
   begin
      id 30
      name Head
      direction 0.000000 1.000000 0.000000
      length 4.527550
      axis 0.0 0.0 0.0 xyz
      dof rx ry rz
   end
:hierarchy
   begin
      root RightUpLeg_dum LeftUpLeg_dum Spine_dum
      RightUpLeg_dum RightUpLeg
      LeftUpLeg_dum LeftUpLeg
      Spine_dum Spine
      RightUpLeg RightLeg
      RightLeg RightFoot
      RightFoot RightToeBase
      LeftUpLeg LeftLeg
      LeftLeg LeftFoot
      LeftFoot LeftToeBase
      Spine Spine_dum1 Spine_dum2 Spine_dum3
      Spine_dum1 RightShoulder
      Spine_dum2 LeftShoulder
      Spine_dum3 Head
      RightShoulder RightArm
      RightArm RightForeArm
      RightForeArm RightHand
      RightHand RightHand_dum1 RightHand_dum2
      RightHand_dum2 RightHandThumb1
      LeftShoulder LeftArm
      LeftArm LeftForeArm
      LeftForeArm LeftHand
      LeftHand LeftHand_dum1 LeftHand_dum2
      LeftHand_dum2 LeftHandThumb1
   end

# File created by Blade
# Date/Time:  Mon Sep 22 16:09:39 2014
# Frame Rate: 120.000 fps
#------------------------------------------------------
:FULLY-SPECIFIED
:DEGREES
498
root 2.654607 37.014587 1.700522 -0.466578 -1.916988 1.681943
RightUpLeg 7.302393 -6.012695 -2.715282
RightLeg -4.543763 -0.000000 0.000000
RightFoot -13.373597 -16.938708 15.817491
RightToeBase 14.837166 -0.000000 -0.000000
LeftUpLeg 4.416721 0.135433 1.771229
LeftLeg -0.779442 -0.000000 0.000000
LeftFoot -9.839937 12.765715 -16.664865
LeftToeBase 9.595368 -0.000000 -0.000000
Spine 0.260782 2.034732 -1.113059
RightShoulder 11.080008 -27.603111 -9.492586
RightArm 50.649872 -40.578409 36.499641
RightForeArm 84.328099 -0.000000 81.110058
RightHand 1.788055 -0.000000 13.610236
RightHandThumb1 -24.326973 -0.000000 -32.862282
LeftShoulder -15.707100 37.705053 -3.058717
LeftArm 50.613400 27.308256 -48.279976
LeftForeArm 24.588717 0.000000 31.825728
LeftHand -12.517275 -0.000000 -12.119086
LeftHandThumb1 -26.253704 0.000000 33.147579
Head 5.373484 0.261698 5.970148
499
root 2.656964 37.014120 1.696402 -0.410159 -1.920536 1.699813
RightUpLeg 7.242071 -6.026246 -2.732098
RightLeg -4.549993 -0.000000 0.000000
RightFoot -13.366587 -16.933230 15.791244
RightToeBase 14.812399 -0.000000 -0.000000
LeftUpLeg 4.358917 0.138373 1.750252
LeftLeg -0.790258 -0.000000 0.000000
LeftFoot -9.827676 12.761525 -16.673119
LeftToeBase 9.598060 -0.000000 -0.000000
Spine 0.127872 2.025161 -1.133999
RightShoulder 11.083878 -27.583269 -9.513003
RightArm 50.538293 -40.504537 36.569393
RightForeArm 84.631076 -0.000000 81.317777
RightHand 1.809445 0.000000 14.105332
RightHandThumb1 -24.326973 -0.000000 -32.862282
LeftShoulder -15.681404 37.760995 -3.041486
LeftArm 50.633215 27.323588 -48.240364
LeftForeArm 24.606468 0.000000 31.819642
LeftHand -12.516780 -0.000000 -12.147593
LeftHandThumb1 -26.253704 0.000000 33.147579
Head 5.797057 0.248656 6.049546
500
root 2.656349 37.014188 1.695592 -0.409853 -1.952173 1.694170
RightUpLeg 7.246277 -6.021177 -2.727794
RightLeg -4.569569 -0.000000 0.000000
RightFoot -13.341316 -16.898900 15.814289
RightToeBase 14.767599 -0.000000 -0.000000
LeftUpLeg 4.375939 0.167728 1.757827
LeftLeg -0.816225 -0.000000 0.000000
LeftFoot -9.822149 12.765035 -16.668934
LeftToeBase 9.635973 -0.000000 -0.000000
Spine 0.063574 2.046267 -1.118093
RightShoulder 11.114484 -27.524209 -9.548327
RightArm 50.361472 -40.442069 36.722562
RightForeArm 84.611733 -0.000000 81.554508
RightHand 1.835277 0.000000 14.294719
RightHandThumb1 -24.326973 -0.000000 -32.862282
LeftShoulder -15.637614 37.807568 -3.033758
LeftArm 50.630233 27.312305 -48.233555
LeftForeArm 24.630198 -0.000000 31.813693
LeftHand -12.519185 0.000000 -12.195132
LeftHandThumb1 -26.253704 0.000000 33.147579
Head 6.226674 0.225939 6.090225
501
root 2.661203 37.013346 1.688269 -0.328499 -1.944535 1.711788
RightUpLeg 7.157962 -6.042701 -2.744839
RightLeg -4.580684 -0.000000 0.000000
RightFoot -13.338454 -16.886419 15.803672
RightToeBase 14.811035 -0.000000 -0.000000
LeftUpLeg 4.279320 0.125488 1.728519
LeftLeg -0.807431 -0.000000 0.000000
LeftFoot -9.798441 12.793900 -16.616042
LeftToeBase 9.511117 -0.000000 -0.000000
Spine -0.089030 2.024891 -1.123977
RightShoulder 11.104286 -27.473819 -9.563186
RightArm 50.261768 -40.383386 36.799231
RightForeArm 84.470557 -0.000000 81.758165
RightHand 1.848020 -0.000000 14.293512
RightHandThumb1 -24.326973 -0.000000 -32.862282
LeftShoulder -15.626492 37.803664 -3.028284
LeftArm 50.633691 27.380096 -48.188521
LeftForeArm 24.537757 -0.000000 31.773376
LeftHand -12.516736 0.000000 -12.072916
LeftHandThumb1 -26.253704 0.000000 33.147579
Head 6.661307 0.207987 6.149033
502
root 2.660613 37.012683 1.686444 -0.292404 -2.005316 1.720888
RightUpLeg 7.119169 -5.992441 -2.747298
RightLeg -4.601814 -0.000000 0.000000
RightFoot -13.335966 -16.886267 15.793360
RightToeBase 14.829427 -0.000000 -0.000000
LeftUpLeg 4.258776 0.186764 1.722011
LeftLeg -0.827442 -0.000000 0.000000
LeftFoot -9.789729 12.791029 -16.623612
LeftToeBase 9.482435 -0.000000 -0.000000
Spine -0.194736 2.077442 -1.129667
RightShoulder 11.103305 -27.465600 -9.589994
RightArm 50.204395 -40.296855 36.868334
RightForeArm 85.373569 -0.000000 81.968451
RightHand 1.441179 -0.000000 14.953367
RightHandThumb1 -24.326973 -0.000000 -32.862282
LeftShoulder -15.583390 37.806590 -3.006907
LeftArm 50.596411 27.397537 -48.189621
LeftForeArm 24.530789 0.000000 31.754806
LeftHand -12.535508 -0.000000 -12.083894
LeftHandThumb1 -26.253704 0.000000 33.147579
Head 7.097776 0.194783 6.205775
503
root 2.660996 37.012690 1.684286 -0.271572 -2.054229 1.721361
RightUpLeg 7.093976 -5.968709 -2.746808
RightLeg -4.614954 -0.000000 0.000000
RightFoot -13.314941 -16.873431 15.781292
RightToeBase 14.807924 -0.000000 -0.000000
LeftUpLeg 4.251796 0.238076 1.723202
LeftLeg -0.852959 -0.000000 0.000000
LeftFoot -9.805456 12.793030 -16.672637
LeftToeBase 9.584369 -0.000000 -0.000000
Spine -0.268530 2.132548 -1.116193
RightShoulder 11.088442 -27.429226 -9.608784
RightArm 50.161308 -40.263609 36.895255
RightForeArm 85.383460 -0.000000 82.185387
RightHand 1.644801 -0.000000 15.246407
RightHandThumb1 -24.326973 -0.000000 -32.862282
LeftShoulder -15.553238 37.798303 -3.008626
LeftArm 50.592225 27.417784 -48.158856
LeftForeArm 24.551634 -0.000000 31.718432
LeftHand -12.527894 -0.000000 -12.123116
LeftHandThumb1 -26.253704 0.000000 33.147579
Head 7.495536 0.144147 6.226455
504
root 2.663310 37.012906 1.681500 -0.258644 -2.072110 1.723160
RightUpLeg 7.081708 -5.987604 -2.753513
RightLeg -4.633690 -0.000000 0.000000
RightFoot -13.279577 -16.852027 15.741366
RightToeBase 14.799498 -0.000000 -0.000000
LeftUpLeg 4.238946 0.214053 1.714518
LeftLeg -0.852074 -0.000000 0.000000
LeftFoot -9.789744 12.818928 -16.637144
LeftToeBase 9.492902 -0.000000 -0.000000
Spine -0.334667 2.136171 -1.100356
RightShoulder 11.083539 -27.405970 -9.598104
RightArm 50.299233 -40.273547 36.777712
RightForeArm 87.019081 -0.000000 82.625340
RightHand 2.070901 0.000000 14.359260
RightHandThumb1 -24.326973 -0.000000 -32.862282
LeftShoulder -15.527437 37.785089 -3.013795
LeftArm 50.559239 27.416105 -48.195904
LeftForeArm 24.579761 -0.000000 31.665417
LeftHand -12.532438 -0.000000 -12.141934
LeftHandThumb1 -26.253704 0.000000 33.147579
Head 7.892372 0.154695 6.242192
505
root 2.664221 37.013215 1.679795 -0.260954 -2.105186 1.723740
RightUpLeg 7.082022 -5.994264 -2.757541
RightLeg -4.646886 -0.000000 0.000000
RightFoot -13.257281 -16.820221 15.749735
RightToeBase 14.796324 -0.000000 -0.000000
LeftUpLeg 4.247417 0.226364 1.711874
LeftLeg -0.866181 -0.000000 0.000000
LeftFoot -9.822636 12.846092 -16.715838
LeftToeBase 9.630999 -0.000000 -0.000000
Spine -0.368374 2.150339 -1.089176
RightShoulder 11.062461 -27.343702 -9.591574
RightArm 50.351509 -40.291228 36.701959
RightForeArm 86.950919 0.000000 82.856190
RightHand 2.231707 -0.000000 14.040709
RightHandThumb1 -24.326973 -0.000000 -32.862282
LeftShoulder -15.547921 37.784337 -3.045217
LeftArm 50.572525 27.400918 -48.204080
LeftForeArm 24.613881 -0.000000 31.608208
LeftHand -12.504087 -0.000000 -12.154312
LeftHandThumb1 -26.253704 0.000000 33.147579
Head 8.227323 0.148945 6.258823
506
root 2.666245 37.013375 1.677761 -0.277951 -2.144547 1.734362
RightUpLeg 7.088505 -6.026777 -2.784972
RightLeg -4.626368 -0.000000 0.000000
RightFoot -13.267882 -16.701070 15.767463
RightToeBase 14.794608 -0.000000 -0.000000
LeftUpLeg 4.272222 0.225508 1.694166
LeftLeg -0.872775 -0.000000 0.000000
LeftFoot -9.790092 12.881926 -16.639364
LeftToeBase 9.486548 -0.000000 -0.000000
Spine -0.364577 2.191382 -1.085689
RightShoulder 11.000326 -27.260869 -9.567810
RightArm 50.269067 -40.242566 36.740297
RightForeArm 86.340593 -0.000000 83.064401
RightHand 2.191194 0.000000 14.197354
RightHandThumb1 -24.326973 -0.000000 -32.862282
LeftShoulder -15.534659 37.729989 -3.053107
LeftArm 50.542901 27.409415 -48.229763
LeftForeArm 24.629544 -0.000000 31.567775
LeftHand -12.548174 -0.000000 -12.133184
LeftHandThumb1 -26.253704 0.000000 33.147579
Head 8.476426 0.088576 6.265446
507
root 2.666860 37.013645 1.676731 -0.285157 -2.175636 1.736387
RightUpLeg 7.091920 -6.036085 -2.791730
RightLeg -4.631095 -0.000000 0.000000
RightFoot -13.245849 -16.666654 15.742074
RightToeBase 14.801691 -0.000000 -0.000000
LeftUpLeg 4.287682 0.241162 1.689573
LeftLeg -0.891375 -0.000000 0.000000
LeftFoot -9.812988 12.917237 -16.691106
LeftToeBase 9.602379 -0.000000 -0.000000
Spine -0.364431 2.200242 -1.076866
RightShoulder 10.939185 -27.180375 -9.526156
RightArm 50.272095 -40.209855 36.755752
RightForeArm 86.431053 -0.000000 83.176273
RightHand 2.008133 -0.000000 14.445865
RightHandThumb1 -24.326973 -0.000000 -32.862282
LeftShoulder -15.593239 37.676447 -3.104482
LeftArm 50.541058 27.415056 -48.233911
LeftForeArm 24.640877 -0.000000 31.518510
LeftHand -12.581675 0.000000 -12.002529
LeftHandThumb1 -26.253704 0.000000 33.147579
Head 8.656251 -0.001960 6.244181
508
root 2.665043 37.014510 1.676221 -0.289019 -2.206836 1.726754
RightUpLeg 7.104225 -5.990249 -2.769873
RightLeg -4.677216 -0.000000 0.000000
RightFoot -13.209074 -16.743487 15.727620
RightToeBase 14.819064 -0.000000 -0.000000
LeftUpLeg 4.297433 0.252645 1.701917
LeftLeg -0.895504 -0.000000 0.000000
LeftFoot -9.820979 12.929334 -16.735042
LeftToeBase 9.598570 -0.000000 -0.000000
Spine -0.355334 2.207655 -1.051887
RightShoulder 10.848741 -27.116431 -9.466363
RightArm 50.460838 -40.239556 36.612043
RightForeArm 86.340255 -0.000000 83.235102
RightHand 2.240721 -0.000000 14.655405
RightHandThumb1 -24.326973 -0.000000 -32.862282
LeftShoulder -15.674209 37.629331 -3.180934
LeftArm 50.563221 27.421688 -48.197711
LeftForeArm 24.616015 -0.000000 31.475242
LeftHand -12.593955 -0.000000 -11.969489
LeftHandThumb1 -26.253704 0.000000 33.147579
Head 8.737705 -0.019860 6.220057
509
root 2.666090 37.014302 1.674437 -0.293929 -2.231000 1.732022
RightUpLeg 7.095614 -6.015595 -2.788000
RightLeg -4.648101 -0.000000 0.000000
RightFoot -13.216061 -16.645854 15.751601
RightToeBase 14.804857 -0.000000 -0.000000
LeftUpLeg 4.300804 0.248198 1.692942
LeftLeg -0.890619 -0.000000 0.000000
LeftFoot -9.829515 12.950454 -16.732010
LeftToeBase 9.615063 -0.000000 -0.000000
Spine -0.325317 2.214912 -1.042819
RightShoulder 10.754944 -27.048900 -9.408816
RightArm 50.531615 -40.246618 36.571182
RightForeArm 86.350389 -0.000000 83.372180
RightHand 2.058977 -0.000000 14.445181
RightHandThumb1 -24.326973 -0.000000 -32.862282
LeftShoulder -15.759865 37.578534 -3.254662
LeftArm 50.575603 27.415711 -48.182737
LeftForeArm 24.651955 -0.000000 31.464893
LeftHand -12.589493 -0.000000 -11.965056
LeftHandThumb1 -26.253704 0.000000 33.147579
Head 8.718015 -0.058894 6.183783
